<svg width="250" height="47" viewBox="0 0 250 47" fill="none" xmlns="http://www.w3.org/2000/svg">
<path d="M92.35 10.92H107.23V15.12H101.86V33H97.51V15.12H92.35V10.92ZM114.171 33.36C112.571 33.36 111.211 33.06 110.091 32.46C108.991 31.86 108.151 31.03 107.571 29.97C106.991 28.91 106.701 27.69 106.701 26.31C106.701 24.99 107.041 23.8 107.721 22.74C108.401 21.68 109.311 20.84 110.451 20.22C111.591 19.58 112.861 19.26 114.261 19.26C116.141 19.26 117.681 19.81 118.881 20.91C120.101 21.99 120.891 23.56 121.251 25.62L111.051 28.86L110.121 26.58L117.501 24.09L116.631 24.48C116.471 23.96 116.181 23.51 115.761 23.13C115.361 22.73 114.751 22.53 113.931 22.53C113.311 22.53 112.761 22.68 112.281 22.98C111.821 23.26 111.461 23.67 111.201 24.21C110.961 24.73 110.841 25.35 110.841 26.07C110.841 26.89 110.991 27.58 111.291 28.14C111.591 28.68 112.001 29.09 112.521 29.37C113.041 29.65 113.621 29.79 114.261 29.79C114.721 29.79 115.161 29.71 115.581 29.55C116.021 29.39 116.451 29.18 116.871 28.92L118.731 32.04C118.031 32.44 117.271 32.76 116.451 33C115.651 33.24 114.891 33.36 114.171 33.36ZM135.433 31.83C134.853 32.29 134.123 32.66 133.243 32.94C132.383 33.22 131.533 33.36 130.693 33.36C129.193 33.36 127.883 33.09 126.763 32.55C125.663 31.99 124.803 31.2 124.183 30.18C123.583 29.14 123.283 27.89 123.283 26.43C123.283 24.97 123.613 23.73 124.273 22.71C124.933 21.67 125.793 20.88 126.853 20.34C127.933 19.8 129.063 19.53 130.243 19.53C131.423 19.53 132.443 19.69 133.303 20.01C134.183 20.33 134.933 20.75 135.553 21.27L133.513 23.97C133.233 23.75 132.843 23.53 132.343 23.31C131.863 23.07 131.293 22.95 130.633 22.95C130.053 22.95 129.523 23.1 129.043 23.4C128.563 23.7 128.183 24.11 127.903 24.63C127.623 25.15 127.483 25.75 127.483 26.43C127.483 27.07 127.633 27.66 127.933 28.2C128.233 28.74 128.643 29.17 129.163 29.49C129.703 29.79 130.333 29.94 131.053 29.94C131.513 29.94 131.933 29.88 132.313 29.76C132.713 29.62 133.053 29.43 133.333 29.19L135.433 31.83ZM138.658 33V9.33H142.768V22.53L142.738 22.02C143.198 21.2 143.848 20.54 144.688 20.04C145.528 19.52 146.558 19.26 147.778 19.26C149.018 19.26 150.048 19.63 150.868 20.37C151.708 21.09 152.138 22.03 152.158 23.19V33H147.958V24.75C147.938 24.17 147.778 23.71 147.478 23.37C147.198 23.01 146.718 22.83 146.038 22.83C145.398 22.83 144.838 23.04 144.358 23.46C143.878 23.88 143.508 24.45 143.248 25.17C142.988 25.89 142.858 26.72 142.858 27.66V33H138.658ZM160.281 19.89L160.611 22.23L160.551 22.02C161.011 21.2 161.661 20.54 162.501 20.04C163.341 19.52 164.371 19.26 165.591 19.26C166.831 19.26 167.861 19.63 168.681 20.37C169.521 21.09 169.951 22.03 169.971 23.19V33H165.771V24.75C165.751 24.17 165.591 23.71 165.291 23.37C165.011 23.01 164.531 22.83 163.851 22.83C163.211 22.83 162.651 23.04 162.171 23.46C161.691 23.88 161.321 24.45 161.061 25.17C160.801 25.89 160.671 26.72 160.671 27.66V33H156.471V19.89H160.281ZM173.263 26.28C173.263 24.94 173.573 23.74 174.193 22.68C174.833 21.62 175.723 20.79 176.863 20.19C178.003 19.57 179.313 19.26 180.793 19.26C182.293 19.26 183.593 19.57 184.693 20.19C185.793 20.79 186.633 21.62 187.213 22.68C187.813 23.74 188.113 24.94 188.113 26.28C188.113 27.62 187.813 28.83 187.213 29.91C186.633 30.97 185.793 31.81 184.693 32.43C183.593 33.05 182.273 33.36 180.733 33.36C179.293 33.36 178.003 33.08 176.863 32.52C175.743 31.96 174.863 31.15 174.223 30.09C173.583 29.03 173.263 27.76 173.263 26.28ZM177.493 26.31C177.493 26.99 177.633 27.61 177.913 28.17C178.193 28.71 178.573 29.14 179.053 29.46C179.533 29.78 180.073 29.94 180.673 29.94C181.333 29.94 181.903 29.78 182.383 29.46C182.863 29.14 183.233 28.71 183.493 28.17C183.753 27.61 183.883 26.99 183.883 26.31C183.883 25.61 183.753 24.99 183.493 24.45C183.233 23.91 182.863 23.48 182.383 23.16C181.903 22.84 181.333 22.68 180.673 22.68C180.073 22.68 179.533 22.84 179.053 23.16C178.573 23.48 178.193 23.91 177.913 24.45C177.633 24.99 177.493 25.61 177.493 26.31ZM191.422 9.33H195.622V33H191.422V9.33ZM198.927 26.28C198.927 24.94 199.237 23.74 199.857 22.68C200.497 21.62 201.387 20.79 202.527 20.19C203.667 19.57 204.977 19.26 206.457 19.26C207.957 19.26 209.257 19.57 210.357 20.19C211.457 20.79 212.297 21.62 212.877 22.68C213.477 23.74 213.777 24.94 213.777 26.28C213.777 27.62 213.477 28.83 212.877 29.91C212.297 30.97 211.457 31.81 210.357 32.43C209.257 33.05 207.937 33.36 206.397 33.36C204.957 33.36 203.667 33.08 202.527 32.52C201.407 31.96 200.527 31.15 199.887 30.09C199.247 29.03 198.927 27.76 198.927 26.28ZM203.157 26.31C203.157 26.99 203.297 27.61 203.577 28.17C203.857 28.71 204.237 29.14 204.717 29.46C205.197 29.78 205.737 29.94 206.337 29.94C206.997 29.94 207.567 29.78 208.047 29.46C208.527 29.14 208.897 28.71 209.157 28.17C209.417 27.61 209.547 26.99 209.547 26.31C209.547 25.61 209.417 24.99 209.157 24.45C208.897 23.91 208.527 23.48 208.047 23.16C207.567 22.84 206.997 22.68 206.337 22.68C205.737 22.68 205.197 22.84 204.717 23.16C204.237 23.48 203.857 23.91 203.577 24.45C203.297 24.99 203.157 25.61 203.157 26.31ZM223.866 39.6C222.686 39.6 221.686 39.46 220.866 39.18C220.066 38.9 219.386 38.56 218.826 38.16C218.266 37.76 217.766 37.38 217.326 37.02L219.786 34.14C220.246 34.56 220.776 34.96 221.376 35.34C221.996 35.74 222.806 35.94 223.806 35.94C224.466 35.94 225.076 35.82 225.636 35.58C226.216 35.36 226.676 35.03 227.016 34.59C227.376 34.15 227.556 33.6 227.556 32.94V30.06L227.706 30.81C227.386 31.49 226.806 32.09 225.966 32.61C225.126 33.11 224.026 33.36 222.666 33.36C221.486 33.36 220.386 33.06 219.366 32.46C218.366 31.84 217.566 31.01 216.966 29.97C216.366 28.91 216.066 27.71 216.066 26.37C216.066 24.99 216.386 23.77 217.026 22.71C217.666 21.63 218.496 20.78 219.516 20.16C220.536 19.54 221.616 19.23 222.756 19.23C223.896 19.23 224.876 19.4 225.696 19.74C226.536 20.06 227.166 20.46 227.586 20.94L227.436 21.33L227.886 19.89H231.756V33C231.756 34.28 231.396 35.41 230.676 36.39C229.956 37.39 228.996 38.17 227.796 38.73C226.616 39.31 225.306 39.6 223.866 39.6ZM220.296 26.25C220.296 26.95 220.456 27.58 220.776 28.14C221.096 28.7 221.526 29.14 222.066 29.46C222.626 29.78 223.246 29.94 223.926 29.94C224.506 29.94 225.016 29.87 225.456 29.73C225.916 29.57 226.316 29.35 226.656 29.07C227.016 28.77 227.316 28.4 227.556 27.96V24.75C227.376 24.31 227.106 23.94 226.746 23.64C226.386 23.32 225.966 23.08 225.486 22.92C225.026 22.74 224.506 22.65 223.926 22.65C223.246 22.65 222.626 22.81 222.066 23.13C221.526 23.43 221.096 23.85 220.776 24.39C220.456 24.93 220.296 25.55 220.296 26.25ZM237.12 39.3L245.85 19.89H249.63L241.17 39.3H237.12ZM240.63 33.06L234.21 19.89H238.92L243.87 30.96L240.63 33.06Z" fill="white"/>
<rect width="80" height="47" rx="14" fill="url(#paint0_linear_463_16)"/>
<path d="M29.64 17.26C28.8 16.8 27.94 16.42 27.06 16.12C26.2 15.82 25.39 15.67 24.63 15.67C23.69 15.67 22.95 15.86 22.41 16.24C21.87 16.62 21.6 17.19 21.6 17.95C21.6 18.47 21.8 18.94 22.2 19.36C22.62 19.76 23.15 20.12 23.79 20.44C24.45 20.76 25.13 21.05 25.83 21.31C26.47 21.55 27.1 21.84 27.72 22.18C28.36 22.5 28.93 22.91 29.43 23.41C29.93 23.89 30.33 24.5 30.63 25.24C30.93 25.96 31.08 26.85 31.08 27.91C31.08 29.03 30.79 30.07 30.21 31.03C29.63 31.99 28.78 32.77 27.66 33.37C26.54 33.95 25.16 34.24 23.52 34.24C22.68 34.24 21.82 34.16 20.94 34C20.08 33.82 19.23 33.56 18.39 33.22C17.55 32.86 16.74 32.41 15.96 31.87L17.88 28.48C18.4 28.86 18.96 29.2 19.56 29.5C20.18 29.78 20.8 30 21.42 30.16C22.04 30.32 22.61 30.4 23.13 30.4C23.65 30.4 24.17 30.33 24.69 30.19C25.23 30.03 25.67 29.77 26.01 29.41C26.37 29.05 26.55 28.55 26.55 27.91C26.55 27.47 26.4 27.07 26.1 26.71C25.82 26.35 25.43 26.02 24.93 25.72C24.45 25.42 23.92 25.16 23.34 24.94C22.66 24.68 21.96 24.38 21.24 24.04C20.52 23.7 19.84 23.29 19.2 22.81C18.58 22.31 18.07 21.7 17.67 20.98C17.29 20.24 17.1 19.34 17.1 18.28C17.1 17 17.38 15.89 17.94 14.95C18.52 14.01 19.33 13.27 20.37 12.73C21.41 12.17 22.61 11.86 23.97 11.8C25.75 11.8 27.19 12.01 28.29 12.43C29.41 12.85 30.41 13.35 31.29 13.93L29.64 17.26ZM48.4261 11.92L54.8761 27.82L52.3561 27.31L58.2061 11.92H63.3661L53.2861 35.02L43.2061 11.92H48.4261Z" fill="white"/>
<defs>
<linearGradient id="paint0_linear_463_16" x1="40" y1="0" x2="40" y2="47" gradientUnits="userSpaceOnUse">
<stop stop-color="#000AFE"/>
<stop offset="1" stop-color="#00FFFB"/>
</linearGradient>
</defs>
</svg>
