<svg width="359" height="359" viewBox="0 0 359 359" fill="none" xmlns="http://www.w3.org/2000/svg">
<g filter="url(#filter0_d_1113_3)">
<circle cx="179.69" cy="175.017" r="175" fill="url(#paint0_linear_1113_3)"/>
</g>
<path d="M146.346 123.777L154.781 120.238C158.62 118.625 162.915 118.464 166.864 119.786C170.813 121.108 174.146 123.821 176.241 127.42L182.929 138.908C184.731 142.003 185.518 145.584 185.181 149.149C184.844 152.715 183.4 156.085 181.05 158.787L172.507 168.614C172.401 168.735 172.319 168.875 172.264 169.026C171.485 171.156 173.56 176.408 179.136 184.087C185.425 192.741 189.916 195.951 191.762 195.189L203.792 190.079C207.087 188.681 210.737 188.35 214.23 189.131C217.722 189.913 220.883 191.767 223.269 194.435L232.093 204.293C234.863 207.388 236.415 211.384 236.462 215.537C236.508 219.691 235.045 223.72 232.344 226.876L226.376 233.843C224.301 236.268 221.67 238.155 218.708 239.343C215.745 240.531 212.54 240.985 209.364 240.666C190.506 238.764 172.411 225.642 154.97 201.64C137.523 177.622 130.632 156.33 134.679 137.799C135.357 134.696 136.771 131.803 138.803 129.362C140.834 126.921 143.418 125.006 146.346 123.777ZM149.421 131.072C147.664 131.809 146.11 132.958 144.891 134.423C143.672 135.887 142.823 137.623 142.416 139.484C138.927 155.453 145.128 174.621 161.378 196.988C177.616 219.339 193.913 231.154 210.165 232.788C212.07 232.979 213.993 232.707 215.771 231.993C217.548 231.28 219.126 230.147 220.371 228.692L226.334 221.731C227.789 220.032 228.577 217.862 228.553 215.625C228.529 213.389 227.693 211.237 226.202 209.57L217.377 199.707C216.093 198.27 214.391 197.272 212.511 196.851C210.631 196.431 208.666 196.609 206.892 197.36L194.831 202.485C188.152 205.261 181.063 200.197 172.738 188.733C165.687 179.033 162.835 171.789 164.838 166.311C165.225 165.252 165.801 164.273 166.539 163.421L175.082 153.595C176.348 152.14 177.126 150.325 177.308 148.405C177.49 146.484 177.066 144.556 176.095 142.889L169.403 131.407C168.275 129.468 166.48 128.007 164.353 127.295C162.226 126.583 159.913 126.67 157.845 127.539L149.421 131.072Z" fill="white"/>
<defs>
<filter id="filter0_d_1113_3" x="0.689575" y="0.0174561" width="358" height="358" filterUnits="userSpaceOnUse" color-interpolation-filters="sRGB">
<feFlood flood-opacity="0" result="BackgroundImageFix"/>
<feColorMatrix in="SourceAlpha" type="matrix" values="0 0 0 0 0 0 0 0 0 0 0 0 0 0 0 0 0 0 127 0" result="hardAlpha"/>
<feOffset dy="4"/>
<feGaussianBlur stdDeviation="2"/>
<feComposite in2="hardAlpha" operator="out"/>
<feColorMatrix type="matrix" values="0 0 0 0 0 0 0 0 0 0 0 0 0 0 0 0 0 0 0.25 0"/>
<feBlend mode="normal" in2="BackgroundImageFix" result="effect1_dropShadow_1113_3"/>
<feBlend mode="normal" in="SourceGraphic" in2="effect1_dropShadow_1113_3" result="shape"/>
</filter>
<linearGradient id="paint0_linear_1113_3" x1="-295.31" y1="-49.9826" x2="929.69" y2="545.017" gradientUnits="userSpaceOnUse">
<stop stop-color="#1D3B77"/>
<stop offset="1" stop-color="#134BBA"/>
</linearGradient>
</defs>
</svg>
