<svg width="69" height="69" viewBox="0 0 69 69" fill="none" xmlns="http://www.w3.org/2000/svg">
<circle cx="34.3" cy="34.127" r="34" fill="#FFB342"/>
<path d="M47.5509 40.9332C46.6348 40.0101 44.4159 38.6631 43.3393 38.1202C41.9373 37.4141 41.822 37.3564 40.72 38.175C39.985 38.7213 39.4963 39.2094 38.6361 39.0259C37.7759 38.8425 35.9066 37.8081 34.2699 36.1766C32.6331 34.5452 31.5386 32.6218 31.3546 31.7645C31.1705 30.9072 31.6667 30.4244 32.2079 29.6877C32.9706 28.6493 32.9129 28.4762 32.261 27.0743C31.7527 25.984 30.3663 23.786 29.4397 22.8745C28.4486 21.8955 28.4486 22.0686 27.8099 22.334C27.2899 22.5527 26.7911 22.8186 26.3197 23.1284C25.3966 23.7416 24.8842 24.251 24.526 25.0165C24.1677 25.7821 24.0067 27.5768 25.857 30.9378C27.7072 34.2988 29.0053 36.0174 31.6921 38.6965C34.3789 41.3756 36.4449 42.8162 39.4652 44.5099C43.2014 46.6023 44.6345 46.1945 45.4024 45.8368C46.1703 45.4791 46.6821 44.9715 47.2965 44.0484C47.6071 43.5778 47.8736 43.0796 48.0927 42.56C48.3587 41.9237 48.5317 41.9237 47.5509 40.9332Z" stroke="#1C2752" stroke-width="2" stroke-miterlimit="10"/>
</svg>
