<svg width="60" height="61" viewBox="0 0 60 61" fill="none" xmlns="http://www.w3.org/2000/svg">
<circle cx="30" cy="30.2539" r="30" fill="#2C3765"/>
<path fill-rule="evenodd" clip-rule="evenodd" d="M39.2828 30.5382C39.2828 25.4111 34.9657 21.2539 29.6414 21.2539C24.3171 21.2539 20 25.4111 20 30.5382C20 35.1721 23.5251 39.0131 28.1349 39.7102V33.2228H25.6863V30.5382H28.1349V28.4928C28.1349 26.1663 29.5747 24.8802 31.7767 24.8802C32.8317 24.8802 33.9353 25.0617 33.9353 25.0617V27.3467H32.7189C31.5219 27.3467 31.1475 28.0621 31.1475 28.7974V30.5382H33.8212L33.3942 33.2228H31.1479V39.7111C35.7577 39.0143 39.2828 35.1733 39.2828 30.5382Z" fill="white"/>
</svg>
