<svg width="60" height="61" viewBox="0 0 60 61" fill="none" xmlns="http://www.w3.org/2000/svg">
<circle cx="30" cy="30.2539" r="30" fill="#2C3765"/>
<path d="M33.6585 22.8012C34.7231 22.8042 35.7431 23.2128 36.4958 23.9377C37.2486 24.6625 37.6729 25.6448 37.6761 26.6699V34.4066C37.6729 35.4317 37.2486 36.4139 36.4958 37.1388C35.7431 37.8637 34.7231 38.2722 33.6585 38.2753H25.6243C24.5598 38.2722 23.5397 37.8637 22.787 37.1388C22.0342 36.4139 21.6099 35.4317 21.6068 34.4066V26.6699C21.6099 25.6448 22.0342 24.6625 22.787 23.9377C23.5397 23.2128 24.5598 22.8042 25.6243 22.8012H33.6585ZM33.6585 21.2539H25.6243C22.5309 21.2539 20 23.691 20 26.6699V34.4066C20 37.3854 22.5309 39.8226 25.6243 39.8226H33.6585C36.752 39.8226 39.2828 37.3854 39.2828 34.4066V26.6699C39.2828 23.691 36.752 21.2539 33.6585 21.2539Z" fill="white"/>
<path d="M34.8638 26.6702C34.6254 26.6702 34.3924 26.6021 34.1942 26.4746C33.996 26.3471 33.8416 26.1658 33.7504 25.9538C33.6591 25.7417 33.6353 25.5084 33.6818 25.2833C33.7283 25.0581 33.8431 24.8513 34.0116 24.689C34.1802 24.5267 34.3949 24.4162 34.6287 24.3714C34.8625 24.3266 35.1048 24.3496 35.325 24.4375C35.5452 24.5253 35.7334 24.6741 35.8659 24.8649C35.9983 25.0558 36.069 25.2801 36.069 25.5097C36.0693 25.6622 36.0384 25.8132 35.9779 25.9542C35.9175 26.0951 35.8287 26.2232 35.7167 26.331C35.6048 26.4389 35.4718 26.5243 35.3254 26.5825C35.179 26.6407 35.0222 26.6705 34.8638 26.6702ZM29.6415 27.4436C30.2772 27.4436 30.8986 27.6251 31.4271 27.9652C31.9556 28.3053 32.3676 28.7886 32.6108 29.3542C32.8541 29.9197 32.9177 30.542 32.7937 31.1423C32.6697 31.7427 32.3636 32.2941 31.9141 32.727C31.4646 33.1598 30.892 33.4546 30.2685 33.574C29.6451 33.6934 28.9989 33.6321 28.4116 33.3979C27.8243 33.1636 27.3224 32.7669 26.9692 32.258C26.6161 31.749 26.4276 31.1506 26.4276 30.5385C26.4285 29.718 26.7674 28.9313 27.3699 28.3511C27.9724 27.7708 28.7894 27.4445 29.6415 27.4436ZM29.6415 25.8964C28.6881 25.8964 27.756 26.1686 26.9633 26.6787C26.1705 27.1888 25.5526 27.9138 25.1878 28.7621C24.8229 29.6103 24.7274 30.5437 24.9134 31.4442C25.0994 32.3447 25.5586 33.1718 26.2328 33.821C26.9069 34.4703 27.7659 34.9124 28.701 35.0915C29.6362 35.2706 30.6054 35.1787 31.4863 34.8273C32.3672 34.476 33.1201 33.881 33.6498 33.1176C34.1795 32.3542 34.4622 31.4567 34.4622 30.5385C34.4622 29.3074 33.9543 28.1266 33.0503 27.256C32.1462 26.3855 30.92 25.8964 29.6415 25.8964Z" fill="white"/>
</svg>
